<?xml version="1.0" encoding="utf-8"?>
<!-- Generator: Adobe Illustrator 22.1.0, SVG Export Plug-In . SVG Version: 6.00 Build 0)  -->
<svg version="1.1" id="logo" xmlns="http://www.w3.org/2000/svg" xmlns:xlink="http://www.w3.org/1999/xlink" x="0px" y="0px"
	 viewBox="0 0 354.2 260.9" style="enable-background:new 0 0 354.2 260.9;" xml:space="preserve">
<style type="text/css">
	.st0{fill:#FFD04F;}
</style>
<g>
	<g>
		<polygon class="st0" points="250.7,80.1 250.7,104.1 230,104.1 230,179.3 206.1,179.3 206.1,104.1 185.5,104.1 185.5,80.1 		"/>
		<path class="st0" d="M354.2,141.9c-5.2,22.3-25.1,38.9-49,38.9c-27.8,0-50.3-22.5-50.3-50.3c0-27.8,22.5-50.3,50.3-50.3
			c23.5,0,43.2,16.1,48.7,37.8h-26.1c-4.4-8-12.9-13.4-22.7-13.4c-14.3,0-25.9,11.6-25.9,25.9c0,14.3,11.6,25.9,25.9,25.9
			c10.2,0,19-5.9,23.2-14.5H354.2z"/>
		<path class="st0" d="M180,141.9c-5.2,22.3-25.1,38.9-49,38.9c-27.8,0-50.3-22.5-50.3-50.3c0-27.8,22.5-50.3,50.3-50.3
			c23.5,0,43.2,16.1,48.7,37.8h-26.1c-4.4-8-12.9-13.4-22.7-13.4c-14.3,0-25.9,11.6-25.9,25.9c0,14.3,11.6,25.9,25.9,25.9
			c10.2,0,19-5.9,23.2-14.5H180z"/>
	</g>
	<g>
		<path class="st0" d="M176.9,176.4"/>
		<path class="st0" d="M165.6,186.6c-0.6,0-1.2-0.5-1.2-1.2c0-0.6,0.5-1.2,1.2-1.2c0.6,0,1.2,0.5,1.2,1.2
			C166.7,186.1,166.2,186.6,165.6,186.6z"/>
		<path class="st0" d="M152.5,193.8c-1.2,0-2.1-0.9-2.1-2.1c0-1.2,0.9-2.1,2.1-2.1c1.2,0,2.1,0.9,2.1,2.1
			C154.6,192.9,153.6,193.8,152.5,193.8z"/>
		<path class="st0" d="M138.3,197.9c-1.6,0-2.9-1.3-2.9-2.9c0-1.6,1.3-2.9,2.9-2.9c1.6,0,2.9,1.3,2.9,2.9
			C141.2,196.6,139.9,197.9,138.3,197.9z"/>
		<path class="st0" d="M123.8,198.5c-2,0-3.5-1.6-3.5-3.5c0-2,1.6-3.5,3.5-3.5c2,0,3.5,1.6,3.5,3.5
			C127.3,196.9,125.7,198.5,123.8,198.5z"/>
		<path class="st0" d="M109.6,195.8c-2.3,0-4.1-1.8-4.1-4.1c0-2.3,1.8-4.1,4.1-4.1c2.3,0,4.1,1.8,4.1,4.1
			C113.7,194,111.8,195.8,109.6,195.8z"/>
		<path class="st0" d="M96.5,190c-2.5,0-4.5-2-4.5-4.5c0-2.5,2-4.5,4.5-4.5c2.5,0,4.5,2,4.5,4.5C101,187.9,99,190,96.5,190z"/>
		<path class="st0" d="M85.1,181.2c-2.7,0-4.9-2.2-4.9-4.8c0-2.7,2.2-4.8,4.9-4.8c2.7,0,4.8,2.2,4.8,4.8
			C90,179,87.8,181.2,85.1,181.2z"/>
		<path class="st0" d="M76,170.1c-2.8,0-5.1-2.3-5.1-5.1c0-2.8,2.3-5.1,5.1-5.1s5.1,2.3,5.1,5.1C81.1,167.8,78.8,170.1,76,170.1z"/>
		<path class="st0" d="M69.7,157.2c-2.9,0-5.2-2.3-5.2-5.2c0-2.9,2.4-5.2,5.2-5.2c2.9,0,5.2,2.3,5.2,5.2
			C75,154.8,72.6,157.2,69.7,157.2z"/>
		<path class="st0" d="M66.5,143.1c-2.9,0-5.3-2.4-5.3-5.3c0-2.9,2.4-5.3,5.3-5.3c2.9,0,5.3,2.4,5.3,5.3
			C71.8,140.7,69.4,143.1,66.5,143.1z"/>
		<path class="st0" d="M66.5,128.5c-2.9,0-5.3-2.4-5.3-5.3s2.4-5.3,5.3-5.3c2.9,0,5.3,2.4,5.3,5.3S69.4,128.5,66.5,128.5z"/>
		<path class="st0" d="M69.7,114.3c-2.9,0-5.3-2.4-5.3-5.3c0-2.9,2.4-5.3,5.3-5.3c2.9,0,5.3,2.4,5.3,5.3
			C75,111.9,72.6,114.3,69.7,114.3z"/>
		<path class="st0" d="M76,101c-2.8,0-5.1-2.3-5.1-5.1c0-2.8,2.3-5.1,5.1-5.1c2.8,0,5.1,2.3,5.1,5.1C81.1,98.7,78.8,101,76,101z"/>
		<path class="st0" d="M85.1,89.4c-2.7,0-4.9-2.2-4.9-4.9c0-2.7,2.2-4.9,4.9-4.9c2.7,0,4.9,2.2,4.9,4.9
			C89.9,87.2,87.8,89.4,85.1,89.4z"/>
		<path class="st0" d="M96.4,80c-2.5,0-4.5-2-4.5-4.5c0-2.5,2-4.5,4.5-4.5c2.5,0,4.5,2,4.5,4.5C101,78,98.9,80,96.4,80z"/>
		<path class="st0" d="M109.5,73.2c-2.3,0-4.1-1.8-4.1-4.1c0-2.3,1.8-4.1,4.1-4.1c2.3,0,4.1,1.8,4.1,4.1
			C113.6,71.4,111.8,73.2,109.5,73.2z"/>
		<path class="st0" d="M123.7,69.5c-2,0-3.6-1.6-3.6-3.6c0-2,1.6-3.6,3.6-3.6s3.6,1.6,3.6,3.6C127.3,67.9,125.7,69.5,123.7,69.5z"/>
		<path class="st0" d="M138.2,68.8c-1.6,0-2.9-1.3-2.9-2.9c0-1.6,1.3-2.9,2.9-2.9c1.6,0,2.9,1.3,2.9,2.9
			C141.1,67.5,139.8,68.8,138.2,68.8z"/>
		<circle class="st0" cx="152.4" cy="69.1" r="2.1"/>
		<circle class="st0" cx="165.5" cy="75.4" r="1.2"/>
	</g>
	<g>
		<path d="M186.1,185.5"/>
		<path d="M175.3,195.4c-0.4,0-0.8-0.4-0.8-0.8c0-0.4,0.4-0.8,0.8-0.8c0.4,0,0.8,0.4,0.8,0.8C176.1,195,175.7,195.4,175.3,195.4z"/>
		<path d="M163,203c-0.8,0-1.5-0.7-1.5-1.5c0-0.8,0.7-1.5,1.5-1.5c0.8,0,1.5,0.7,1.5,1.5C164.5,202.3,163.8,203,163,203z"/>
		<path d="M149.6,208.1c-1.1,0-2.1-0.9-2.1-2.1c0-1.1,0.9-2.1,2.1-2.1c1.1,0,2.1,0.9,2.1,2.1C151.7,207.2,150.8,208.1,149.6,208.1z"
			/>
		<path d="M135.7,210.7c-1.4,0-2.5-1.1-2.5-2.5c0-1.4,1.1-2.5,2.5-2.5c1.4,0,2.5,1.1,2.5,2.5C138.3,209.6,137.1,210.7,135.7,210.7z"
			/>
		<path d="M121.6,210.7c-1.7,0-3-1.3-3-3c0-1.7,1.3-3,3-3c1.7,0,3,1.3,3,3C124.6,209.4,123.3,210.7,121.6,210.7z"/>
		<ellipse transform="matrix(1 -6.966526e-03 6.966526e-03 1 -1.4241 0.7561)" cx="107.8" cy="204.8" rx="3.3" ry="3.3"/>
		<circle cx="94.8" cy="199.4" r="3.7"/>
		<path d="M83,195.6c-2.2,0-3.9-1.7-3.9-3.9c0-2.2,1.7-3.9,3.9-3.9c2.2,0,3.9,1.7,3.9,3.9C86.9,193.9,85.1,195.6,83,195.6z"/>
		<path d="M72.7,186.2c-2.3,0-4.1-1.8-4.1-4.1c0-2.3,1.8-4.1,4.1-4.1c2.3,0,4.1,1.8,4.1,4.1C76.8,184.3,75,186.2,72.7,186.2z"/>
		<path d="M64.3,175c-2.4,0-4.3-1.9-4.3-4.3c0-2.4,1.9-4.3,4.3-4.3c2.4,0,4.3,1.9,4.3,4.3C68.6,173.1,66.7,175,64.3,175z"/>
		<path d="M58.2,162.4c-2.4,0-4.4-2-4.4-4.4c0-2.4,2-4.4,4.4-4.4c2.4,0,4.4,2,4.4,4.4C62.6,160.5,60.6,162.4,58.2,162.4z"/>
		<path d="M54.4,148.9c-2.5,0-4.5-2-4.5-4.5c0-2.5,2-4.5,4.5-4.5c2.5,0,4.5,2,4.5,4.5C58.9,146.9,56.9,148.9,54.4,148.9z"/>
		<path d="M53.1,134.9c-2.5,0-4.5-2-4.5-4.5c0-2.5,2-4.5,4.5-4.5c2.5,0,4.5,2,4.5,4.5C57.6,132.9,55.6,134.9,53.1,134.9z"/>
		<path d="M54.4,120.8c-2.5,0-4.5-2-4.5-4.5c0-2.5,2-4.5,4.5-4.5s4.5,2,4.5,4.5C58.9,118.8,56.9,120.8,54.4,120.8z"/>
		<path d="M58.2,107.2c-2.4,0-4.4-2-4.4-4.4s2-4.4,4.4-4.4c2.4,0,4.4,2,4.4,4.4S60.6,107.2,58.2,107.2z"/>
		<path d="M64.4,94.4c-2.4,0-4.3-1.9-4.3-4.3s1.9-4.3,4.3-4.3c2.4,0,4.3,1.9,4.3,4.3S66.8,94.4,64.4,94.4z"/>
		<path d="M72.8,82.9c-2.3,0-4.1-1.8-4.1-4.1c0-2.3,1.8-4.1,4.1-4.1c2.3,0,4.1,1.8,4.1,4.1C76.9,81,75,82.9,72.8,82.9z"/>
		<path d="M83,73c-2.2,0-3.9-1.8-3.9-3.9c0-2.2,1.8-3.9,3.9-3.9c2.2,0,3.9,1.8,3.9,3.9C86.9,71.3,85.2,73,83,73z"/>
		<path d="M94.9,65.1c-2,0-3.7-1.6-3.7-3.7c0-2,1.6-3.7,3.7-3.7c2,0,3.7,1.6,3.7,3.7C98.5,63.5,96.9,65.1,94.9,65.1z"/>
		<path d="M107.9,59.4c-1.8,0-3.3-1.5-3.3-3.3c0-1.8,1.5-3.3,3.3-3.3c1.9,0,3.3,1.5,3.3,3.3C111.2,57.9,109.7,59.4,107.9,59.4z"/>
		<path d="M121.7,56.1c-1.7,0-3-1.3-3-3c0-1.7,1.3-3,3-3c1.7,0,3,1.3,3,3C124.7,54.8,123.3,56.1,121.7,56.1z"/>
		<path d="M135.8,55.3c-1.4,0-2.6-1.1-2.6-2.6c0-1.4,1.1-2.6,2.6-2.6c1.4,0,2.6,1.1,2.6,2.6C138.3,54.1,137.2,55.3,135.8,55.3z"/>
		<path d="M149.7,56.9c-1.1,0-2.1-0.9-2.1-2.1c0-1.1,0.9-2.1,2.1-2.1c1.1,0,2.1,0.9,2.1,2.1C151.8,56,150.9,56.9,149.7,56.9z"/>
		<path d="M163,60.9c-0.8,0-1.5-0.7-1.5-1.5s0.7-1.5,1.5-1.5c0.8,0,1.5,0.7,1.5,1.5S163.9,60.9,163,60.9z"/>
		<path d="M175.3,67.2c-0.4,0-0.8-0.4-0.8-0.8c0-0.4,0.4-0.8,0.8-0.8c0.4,0,0.8,0.4,0.8,0.8C176.1,66.8,175.8,67.2,175.3,67.2z"/>
	</g>
	<g>
		<path class="st0" d="M195.2,194.7"/>
		<path class="st0" d="M184.8,204.3c-0.3,0-0.6-0.3-0.6-0.6c0-0.3,0.3-0.6,0.6-0.6c0.3,0,0.6,0.3,0.6,0.6
			C185.4,204,185.1,204.3,184.8,204.3z"/>
		<path class="st0" d="M173.1,212.1c-0.6,0-1.1-0.5-1.1-1.1s0.5-1.1,1.1-1.1c0.6,0,1.1,0.5,1.1,1.1S173.7,212.1,173.1,212.1z"/>
		<path class="st0" d="M160.4,218c-0.9,0-1.6-0.7-1.6-1.6c0-0.9,0.7-1.6,1.6-1.6c0.9,0,1.6,0.7,1.6,1.6
			C162,217.3,161.3,218,160.4,218z"/>
		<path class="st0" d="M147,221.9c-1.1,0-2-0.9-2-2c0-1.1,0.9-2,2-2c1.1,0,2,0.9,2,2C149,221,148.1,221.9,147,221.9z"/>
		<path class="st0" d="M133.3,223.6c-1.3,0-2.3-1-2.3-2.3s1-2.3,2.3-2.3c1.3,0,2.3,1,2.3,2.3S134.6,223.6,133.3,223.6z"/>
		<path class="st0" d="M119.5,223.2c-1.5,0-2.7-1.2-2.7-2.7c0-1.5,1.2-2.7,2.7-2.7c1.5,0,2.7,1.2,2.7,2.7
			C122.2,222,121,223.2,119.5,223.2z"/>
		<path class="st0" d="M106,220.7c-1.6,0-2.9-1.3-2.9-2.9c0-1.6,1.3-2.9,2.9-2.9c1.6,0,2.9,1.3,2.9,2.9
			C108.9,219.4,107.6,220.7,106,220.7z"/>
		<path class="st0" d="M93.1,216.2c-1.8,0-3.2-1.4-3.2-3.2c0-1.8,1.4-3.2,3.2-3.2c1.8,0,3.2,1.4,3.2,3.2
			C96.2,214.7,94.8,216.2,93.1,216.2z"/>
		<path class="st0" d="M81,209.7c-1.9,0-3.4-1.5-3.4-3.4c0-1.9,1.5-3.4,3.4-3.4s3.4,1.5,3.4,3.4C84.4,208.2,82.9,209.7,81,209.7z"/>
		<path class="st0" d="M70.1,201.4c-2,0-3.5-1.6-3.5-3.5c0-2,1.6-3.5,3.5-3.5c2,0,3.5,1.6,3.5,3.5C73.7,199.8,72.1,201.4,70.1,201.4
			z"/>
		<path class="st0" d="M60.6,191.5c-2,0-3.7-1.7-3.7-3.7s1.7-3.7,3.7-3.7c2,0,3.7,1.7,3.7,3.7S62.6,191.5,60.6,191.5z"/>
		<circle class="st0" cx="52.7" cy="176.5" r="3.8"/>
		<path class="st0" d="M46.6,168c-2.1,0-3.9-1.7-3.9-3.9c0-2.1,1.7-3.9,3.9-3.9c2.1,0,3.9,1.7,3.9,3.9C50.5,166.3,48.8,168,46.6,168
			z"/>
		<path class="st0" d="M42.5,154.9c-2.2,0-3.9-1.8-3.9-3.9c0-2.2,1.8-3.9,3.9-3.9s3.9,1.8,3.9,3.9C46.4,153.1,44.7,154.9,42.5,154.9
			z"/>
		<circle class="st0" cx="40.4" cy="137.3" r="4"/>
		<path class="st0" d="M40.5,127.5c-2.2,0-4-1.8-4-4c0-2.2,1.8-4,4-4s4,1.8,4,4C44.4,125.7,42.6,127.5,40.5,127.5z"/>
		<path class="st0" d="M42.5,113.8c-2.2,0-3.9-1.8-3.9-3.9c0-2.2,1.8-3.9,3.9-3.9c2.2,0,3.9,1.8,3.9,3.9
			C46.5,112,44.7,113.8,42.5,113.8z"/>
		<path class="st0" d="M46.7,100.6c-2.1,0-3.9-1.7-3.9-3.9c0-2.1,1.7-3.9,3.9-3.9c2.1,0,3.9,1.7,3.9,3.9
			C50.5,98.9,48.8,100.6,46.7,100.6z"/>
		<path class="st0" d="M52.7,88.2c-2.1,0-3.8-1.7-3.8-3.8s1.7-3.8,3.8-3.8c2.1,0,3.8,1.7,3.8,3.8S54.9,88.2,52.7,88.2z"/>
		<path class="st0" d="M60.6,76.7c-2,0-3.7-1.7-3.7-3.7c0-2,1.7-3.7,3.7-3.7c2,0,3.7,1.7,3.7,3.7C64.3,75.1,62.7,76.7,60.6,76.7z"/>
		<path class="st0" d="M70.1,66.6c-2,0-3.6-1.6-3.6-3.6c0-2,1.6-3.6,3.6-3.6c2,0,3.6,1.6,3.6,3.6C73.7,65,72.1,66.6,70.1,66.6z"/>
		<circle class="st0" cx="81.1" cy="54.6" r="3.4"/>
		<path class="st0" d="M93.1,51c-1.8,0-3.2-1.4-3.2-3.2c0-1.8,1.4-3.2,3.2-3.2c1.8,0,3.2,1.4,3.2,3.2C96.3,49.6,94.9,51,93.1,51z"/>
		<path class="st0" d="M106.1,46c-1.6,0-2.9-1.3-2.9-2.9c0-1.6,1.3-2.9,2.9-2.9c1.6,0,2.9,1.3,2.9,2.9C109,44.7,107.7,46,106.1,46z"
			/>
		<path class="st0" d="M119.6,43c-1.5,0-2.7-1.2-2.7-2.7c0-1.5,1.2-2.7,2.7-2.7c1.5,0,2.7,1.2,2.7,2.7C122.3,41.8,121.1,43,119.6,43
			z"/>
		<path class="st0" d="M133.4,42c-1.3,0-2.3-1.1-2.3-2.3c0-1.3,1.1-2.3,2.3-2.3c1.3,0,2.3,1.1,2.3,2.3C135.7,40.9,134.7,42,133.4,42
			z"/>
		<path class="st0" d="M147.1,43c-1.1,0-2-0.9-2-2c0-1.1,0.9-2,2-2s2,0.9,2,2C149.1,42.1,148.2,43,147.1,43z"/>
		<path class="st0" d="M160.4,46.1c-0.9,0-1.6-0.7-1.6-1.6c0-0.9,0.7-1.6,1.6-1.6c0.9,0,1.6,0.7,1.6,1.6
			C162,45.4,161.3,46.1,160.4,46.1z"/>
		<path class="st0" d="M173.1,51.1c-0.6,0-1.1-0.5-1.1-1.1c0-0.6,0.5-1.1,1.1-1.1c0.6,0,1.1,0.5,1.1,1.1
			C174.3,50.6,173.7,51.1,173.1,51.1z"/>
		<path class="st0" d="M184.8,57.9c-0.3,0-0.6-0.3-0.6-0.6s0.3-0.6,0.6-0.6c0.3,0,0.6,0.3,0.6,0.6S185.2,57.9,184.8,57.9z"/>
	</g>
	<g>
		<path class="st0" d="M204.4,203.8"/>
		<path class="st0" d="M193.9,213.4c-0.2,0-0.4-0.2-0.4-0.4s0.2-0.4,0.4-0.4c0.2,0,0.4,0.2,0.4,0.4S194.1,213.4,193.9,213.4z"/>
		<path class="st0" d="M182.2,221.5c-0.4,0-0.8-0.3-0.8-0.8c0-0.4,0.3-0.8,0.8-0.8s0.8,0.3,0.8,0.8
			C183,221.1,182.7,221.5,182.2,221.5z"/>
		<path class="st0" d="M169.7,227.9c-0.6,0-1.1-0.5-1.1-1.1s0.5-1.1,1.1-1.1c0.6,0,1.1,0.5,1.1,1.1S170.2,227.9,169.7,227.9z"/>
		<path class="st0" d="M156.4,232.4c-0.8,0-1.4-0.6-1.4-1.4c0-0.8,0.6-1.4,1.4-1.4c0.8,0,1.4,0.6,1.4,1.4
			C157.7,231.8,157.1,232.4,156.4,232.4z"/>
		<path class="st0" d="M142.6,235.2c-0.9,0-1.6-0.7-1.6-1.6c0-0.9,0.7-1.6,1.6-1.6c0.9,0,1.6,0.7,1.6,1.6
			C144.2,234.4,143.5,235.2,142.6,235.2z"/>
		<path class="st0" d="M128.7,236c-1,0-1.8-0.8-1.8-1.8c0-1,0.8-1.8,1.8-1.8c1,0,1.8,0.8,1.8,1.8C130.5,235.2,129.7,236,128.7,236z"
			/>
		<path class="st0" d="M114.8,235c-1.1,0-2.1-0.9-2.1-2.1c0-1.1,0.9-2.1,2.1-2.1c1.1,0,2.1,0.9,2.1,2.1
			C116.8,234.1,115.9,235,114.8,235z"/>
		<path class="st0" d="M101.2,232.1c-1.2,0-2.2-1-2.2-2.2c0-1.2,1-2.2,2.2-2.2c1.2,0,2.2,1,2.2,2.2
			C103.4,231.1,102.4,232.1,101.2,232.1z"/>
		<path class="st0" d="M88.1,227.3c-1.3,0-2.4-1.1-2.4-2.4c0-1.3,1.1-2.4,2.4-2.4c1.3,0,2.4,1.1,2.4,2.4
			C90.5,226.2,89.4,227.3,88.1,227.3z"/>
		<path class="st0" d="M75.8,220.8c-1.4,0-2.5-1.1-2.5-2.5c0-1.4,1.1-2.5,2.5-2.5c1.4,0,2.5,1.1,2.5,2.5
			C78.3,219.7,77.2,220.8,75.8,220.8z"/>
		<path class="st0" d="M64.5,212.7c-1.5,0-2.6-1.2-2.6-2.6c0-1.5,1.2-2.6,2.6-2.6c1.5,0,2.6,1.2,2.6,2.6
			C67.1,211.5,66,212.7,64.5,212.7z"/>
		<path class="st0" d="M54.4,203.2c-1.5,0-2.7-1.2-2.7-2.7c0-1.5,1.2-2.7,2.7-2.7c1.5,0,2.7,1.2,2.7,2.7
			C57.1,201.9,55.9,203.2,54.4,203.2z"/>
		<path class="st0" d="M45.7,192.4c-1.6,0-2.8-1.3-2.8-2.8c0-1.6,1.3-2.8,2.8-2.8c1.6,0,2.8,1.3,2.8,2.8
			C48.5,191.1,47.3,192.4,45.7,192.4z"/>
		<path class="st0" d="M38.5,180.4c-1.6,0-2.9-1.3-2.9-2.9c0-1.6,1.3-2.9,2.9-2.9c1.6,0,2.9,1.3,2.9,2.9
			C41.4,179.1,40.1,180.4,38.5,180.4z"/>
		<path class="st0" d="M33,167.6c-1.6,0-2.9-1.3-2.9-2.9c0-1.6,1.3-2.9,2.9-2.9c1.6,0,2.9,1.3,2.9,2.9C36,166.3,34.7,167.6,33,167.6
			z"/>
		<path class="st0" d="M29.3,154.2c-1.6,0-3-1.3-3-3s1.3-3,3-3c1.6,0,3,1.3,3,3S31,154.2,29.3,154.2z"/>
		<path class="st0" d="M27.5,140.4c-1.6,0-3-1.3-3-3c0-1.6,1.3-3,3-3c1.6,0,3,1.3,3,3C30.5,139.1,29.1,140.4,27.5,140.4z"/>
		<path class="st0" d="M27.5,126.4c-1.6,0-3-1.3-3-3c0-1.6,1.3-3,3-3c1.6,0,3,1.3,3,3C30.5,125.1,29.1,126.4,27.5,126.4z"/>
		<path class="st0" d="M29.3,112.6c-1.6,0-3-1.3-3-3c0-1.6,1.3-3,3-3c1.6,0,3,1.3,3,3C32.3,111.2,31,112.6,29.3,112.6z"/>
		<path class="st0" d="M33,99.1c-1.6,0-2.9-1.3-2.9-2.9c0-1.6,1.3-2.9,2.9-2.9c1.6,0,2.9,1.3,2.9,2.9C36,97.8,34.7,99.1,33,99.1z"/>
		<path class="st0" d="M38.5,86.2c-1.6,0-2.9-1.3-2.9-2.9c0-1.6,1.3-2.9,2.9-2.9c1.6,0,2.9,1.3,2.9,2.9
			C41.4,84.9,40.1,86.2,38.5,86.2z"/>
		<path class="st0" d="M45.7,74.2c-1.6,0-2.8-1.3-2.8-2.8s1.3-2.8,2.8-2.8c1.6,0,2.8,1.3,2.8,2.8S47.3,74.2,45.7,74.2z"/>
		<path class="st0" d="M54.4,63.1c-1.5,0-2.7-1.2-2.7-2.7c0-1.5,1.2-2.7,2.7-2.7c1.5,0,2.7,1.2,2.7,2.7
			C57.2,61.9,55.9,63.1,54.4,63.1z"/>
		<path class="st0" d="M64.5,53.4c-1.5,0-2.6-1.2-2.6-2.6c0-1.5,1.2-2.6,2.6-2.6s2.6,1.2,2.6,2.6C67.2,52.2,66,53.4,64.5,53.4z"/>
		<circle class="st0" cx="75.8" cy="42.5" r="2.5"/>
		<path class="st0" d="M88.1,38.3c-1.3,0-2.4-1.1-2.4-2.4c0-1.3,1.1-2.4,2.4-2.4c1.3,0,2.4,1.1,2.4,2.4
			C90.5,37.2,89.4,38.3,88.1,38.3z"/>
		<path class="st0" d="M101.2,33.2c-1.2,0-2.2-1-2.2-2.2c0-1.2,1-2.2,2.2-2.2c1.2,0,2.2,1,2.2,2.2C103.4,32.3,102.4,33.2,101.2,33.2
			z"/>
		<path class="st0" d="M114.8,30c-1.1,0-2.1-0.9-2.1-2.1s0.9-2.1,2.1-2.1c1.1,0,2.1,0.9,2.1,2.1S115.9,30,114.8,30z"/>
		<path class="st0" d="M128.7,28.5c-1,0-1.8-0.8-1.8-1.8c0-1,0.8-1.8,1.8-1.8s1.8,0.8,1.8,1.8C130.5,27.7,129.7,28.5,128.7,28.5z"/>
		<path class="st0" d="M142.7,28.9c-0.9,0-1.6-0.7-1.6-1.6c0-0.9,0.7-1.6,1.6-1.6c0.9,0,1.6,0.7,1.6,1.6
			C144.3,28.2,143.5,28.9,142.7,28.9z"/>
		<path class="st0" d="M156.4,31.2c-0.8,0-1.4-0.6-1.4-1.4c0-0.8,0.6-1.4,1.4-1.4c0.8,0,1.4,0.6,1.4,1.4
			C157.8,30.6,157.2,31.2,156.4,31.2z"/>
		<path class="st0" d="M169.7,35.2c-0.6,0-1.1-0.5-1.1-1.1c0-0.6,0.5-1.1,1.1-1.1c0.6,0,1.1,0.5,1.1,1.1
			C170.8,34.7,170.3,35.2,169.7,35.2z"/>
		<path class="st0" d="M182.3,40.9c-0.4,0-0.8-0.3-0.8-0.8s0.3-0.8,0.8-0.8c0.4,0,0.8,0.3,0.8,0.8S182.7,40.9,182.3,40.9z"/>
		<path class="st0" d="M193.9,48.3c-0.2,0-0.4-0.2-0.4-0.4s0.2-0.4,0.4-0.4c0.2,0,0.4,0.2,0.4,0.4S194.1,48.3,193.9,48.3z"/>
	</g>
	<g>
		<path class="st0" d="M213.5,213"/>
		<path class="st0" d="M203.8,222c-0.2,0-0.3-0.1-0.3-0.3c0-0.2,0.1-0.3,0.3-0.3c0.2,0,0.3,0.1,0.3,0.3
			C204.1,221.9,204,222,203.8,222z"/>
		<path class="st0" d="M193.1,229.8c-0.3,0-0.5-0.2-0.5-0.5c0-0.3,0.2-0.5,0.5-0.5c0.3,0,0.5,0.2,0.5,0.5
			C193.6,229.6,193.4,229.8,193.1,229.8z"/>
		<path class="st0" d="M181.7,236.4c-0.4,0-0.7-0.3-0.7-0.7c0-0.4,0.3-0.7,0.7-0.7c0.4,0,0.7,0.3,0.7,0.7
			C182.4,236,182.1,236.4,181.7,236.4z"/>
		<path class="st0" d="M169.6,241.6c-0.5,0-1-0.4-1-1c0-0.5,0.4-1,1-1c0.5,0,1,0.4,1,1C170.5,241.2,170.1,241.6,169.6,241.6z"/>
		<path class="st0" d="M157,245.4c-0.6,0-1.2-0.5-1.2-1.2c0-0.6,0.5-1.2,1.2-1.2c0.6,0,1.2,0.5,1.2,1.2
			C158.2,244.9,157.6,245.4,157,245.4z"/>
		<path class="st0" d="M144.1,247.8c-0.7,0-1.3-0.6-1.3-1.3s0.6-1.3,1.3-1.3c0.7,0,1.3,0.6,1.3,1.3S144.8,247.8,144.1,247.8z"/>
		<path class="st0" d="M131,248.6c-0.8,0-1.5-0.7-1.5-1.5c0-0.8,0.7-1.5,1.5-1.5c0.8,0,1.5,0.7,1.5,1.5
			C132.5,248,131.8,248.6,131,248.6z"/>
		<path class="st0" d="M117.9,248.1c-0.9,0-1.6-0.7-1.6-1.6c0-0.9,0.7-1.7,1.6-1.7c0.9,0,1.6,0.7,1.6,1.7
			C119.6,247.3,118.9,248.1,117.9,248.1z"/>
		<path class="st0" d="M105,246c-1,0-1.8-0.8-1.8-1.8c0-1,0.8-1.8,1.8-1.8c1,0,1.8,0.8,1.8,1.8C106.8,245.2,106,246,105,246z"/>
		<path class="st0" d="M92.5,242.5c-1,0-1.9-0.8-1.9-1.9c0-1,0.8-1.9,1.9-1.9c1,0,1.9,0.8,1.9,1.9C94.3,241.7,93.5,242.5,92.5,242.5
			z"/>
		<path class="st0" d="M80.4,237.6c-1.1,0-2-0.9-2-2c0-1.1,0.9-2,2-2c1.1,0,2,0.9,2,2C82.4,236.7,81.5,237.6,80.4,237.6z"/>
		<path class="st0" d="M68.9,231.4c-1.2,0-2.1-0.9-2.1-2.1c0-1.2,0.9-2.1,2.1-2.1c1.2,0,2.1,0.9,2.1,2.1
			C71,230.5,70.1,231.4,68.9,231.4z"/>
		<path class="st0" d="M58.2,223.9c-1.2,0-2.2-1-2.2-2.2c0-1.2,1-2.2,2.2-2.2c1.2,0,2.2,1,2.2,2.2C60.4,222.9,59.4,223.9,58.2,223.9
			z"/>
		<path class="st0" d="M48.5,215.2c-1.2,0-2.2-1-2.2-2.2c0-1.2,1-2.2,2.2-2.2c1.2,0,2.2,1,2.2,2.2C50.7,214.2,49.7,215.2,48.5,215.2
			z"/>
		<path class="st0" d="M39.8,205.5c-1.3,0-2.3-1-2.3-2.3c0-1.3,1-2.3,2.3-2.3c1.3,0,2.3,1,2.3,2.3C42.1,204.5,41,205.5,39.8,205.5z"
			/>
		<path class="st0" d="M32.2,194.9c-1.3,0-2.4-1.1-2.4-2.4c0-1.3,1.1-2.4,2.4-2.4c1.3,0,2.4,1.1,2.4,2.4
			C34.5,193.9,33.5,194.9,32.2,194.9z"/>
		<circle class="st0" cx="25.8" cy="181.1" r="2.4"/>
		<path class="st0" d="M20.8,171.4c-1.3,0-2.4-1.1-2.4-2.4c0-1.3,1.1-2.4,2.4-2.4c1.3,0,2.4,1.1,2.4,2.4
			C23.3,170.3,22.2,171.4,20.8,171.4z"/>
		<circle class="st0" cx="17.2" cy="156.4" r="2.5"/>
		<path class="st0" d="M15,146c-1.4,0-2.5-1.1-2.5-2.5c0-1.4,1.1-2.5,2.5-2.5s2.5,1.1,2.5,2.5C17.5,144.9,16.4,146,15,146z"/>
		<path class="st0" d="M14.3,132.9c-1.4,0-2.5-1.1-2.5-2.5s1.1-2.5,2.5-2.5s2.5,1.1,2.5,2.5S15.7,132.9,14.3,132.9z"/>
		<path class="st0" d="M15,119.8c-1.4,0-2.5-1.1-2.5-2.5c0-1.4,1.1-2.5,2.5-2.5c1.4,0,2.5,1.1,2.5,2.5
			C17.5,118.7,16.4,119.8,15,119.8z"/>
		<path class="st0" d="M17.2,106.9c-1.4,0-2.5-1.1-2.5-2.5c0-1.4,1.1-2.5,2.5-2.5c1.4,0,2.5,1.1,2.5,2.5
			C19.7,105.8,18.6,106.9,17.2,106.9z"/>
		<path class="st0" d="M20.8,94.3c-1.3,0-2.4-1.1-2.4-2.4s1.1-2.4,2.4-2.4c1.3,0,2.4,1.1,2.4,2.4S22.2,94.3,20.8,94.3z"/>
		<path class="st0" d="M25.8,82.2c-1.3,0-2.4-1.1-2.4-2.4c0-1.3,1.1-2.4,2.4-2.4c1.3,0,2.4,1.1,2.4,2.4
			C28.2,81.1,27.2,82.2,25.8,82.2z"/>
		<path class="st0" d="M32.2,70.7c-1.3,0-2.4-1.1-2.4-2.4c0-1.3,1.1-2.4,2.4-2.4c1.3,0,2.4,1.1,2.4,2.4
			C34.5,69.6,33.5,70.7,32.2,70.7z"/>
		<path class="st0" d="M39.8,60c-1.3,0-2.3-1-2.3-2.3c0-1.3,1-2.3,2.3-2.3c1.3,0,2.3,1,2.3,2.3C42.1,58.9,41,60,39.8,60z"/>
		<path class="st0" d="M48.5,50.2c-1.2,0-2.2-1-2.2-2.2c0-1.2,1-2.2,2.2-2.2s2.2,1,2.2,2.2C50.7,49.1,49.7,50.2,48.5,50.2z"/>
		<path class="st0" d="M58.2,41.4c-1.2,0-2.2-1-2.2-2.2c0-1.2,1-2.2,2.2-2.2c1.2,0,2.2,1,2.2,2.2C60.4,40.4,59.4,41.4,58.2,41.4z"/>
		<path class="st0" d="M68.9,33.7c-1.2,0-2.1-0.9-2.1-2.1c0-1.2,0.9-2.1,2.1-2.1c1.2,0,2.1,0.9,2.1,2.1C71,32.8,70.1,33.7,68.9,33.7
			z"/>
		<path class="st0" d="M80.4,27.3c-1.1,0-2-0.9-2-2c0-1.1,0.9-2,2-2c1.1,0,2,0.9,2,2C82.4,26.4,81.5,27.3,80.4,27.3z"/>
		<path class="st0" d="M92.5,22.1c-1,0-1.9-0.8-1.9-1.9c0-1,0.8-1.9,1.9-1.9c1,0,1.9,0.8,1.9,1.9C94.4,21.3,93.5,22.1,92.5,22.1z"/>
		<path class="st0" d="M105,18.4c-1,0-1.8-0.8-1.8-1.8s0.8-1.8,1.8-1.8c1,0,1.8,0.8,1.8,1.8S106,18.4,105,18.4z"/>
		<path class="st0" d="M117.9,16.1c-0.9,0-1.7-0.7-1.7-1.7c0-0.9,0.7-1.7,1.7-1.7c0.9,0,1.7,0.7,1.7,1.7
			C119.6,15.4,118.9,16.1,117.9,16.1z"/>
		<path class="st0" d="M131,15.2c-0.8,0-1.5-0.7-1.5-1.5c0-0.8,0.7-1.5,1.5-1.5c0.8,0,1.5,0.7,1.5,1.5
			C132.5,14.5,131.8,15.2,131,15.2z"/>
		<path class="st0" d="M144.1,15.8c-0.7,0-1.3-0.6-1.3-1.3c0-0.7,0.6-1.3,1.3-1.3c0.7,0,1.3,0.6,1.3,1.3
			C145.4,15.2,144.8,15.8,144.1,15.8z"/>
		<path class="st0" d="M157,17.8c-0.6,0-1.2-0.5-1.2-1.2c0-0.6,0.5-1.2,1.2-1.2c0.6,0,1.2,0.5,1.2,1.2
			C158.2,17.3,157.6,17.8,157,17.8z"/>
		<path class="st0" d="M169.6,21.2c-0.5,0-1-0.4-1-1c0-0.5,0.4-1,1-1c0.5,0,1,0.4,1,1C170.5,20.8,170.1,21.2,169.6,21.2z"/>
		<path class="st0" d="M181.7,26c-0.4,0-0.7-0.3-0.7-0.7c0-0.4,0.3-0.7,0.7-0.7c0.4,0,0.7,0.3,0.7,0.7C182.4,25.7,182.1,26,181.7,26
			z"/>
		<path class="st0" d="M193.1,32.1c-0.3,0-0.5-0.2-0.5-0.5c0-0.3,0.2-0.5,0.5-0.5c0.3,0,0.5,0.2,0.5,0.5
			C193.7,31.9,193.4,32.1,193.1,32.1z"/>
		<path class="st0" d="M203.8,39.5c-0.2,0-0.3-0.1-0.3-0.3c0-0.2,0.1-0.3,0.3-0.3c0.2,0,0.3,0.1,0.3,0.3
			C204.1,39.3,203.9,39.5,203.8,39.5z"/>
	</g>
	<g>
		<path class="st0" d="M222.7,222.1"/>
		<path class="st0" d="M213.9,230.3c-0.1,0-0.1-0.1-0.1-0.1s0.1-0.1,0.1-0.1c0.1,0,0.1,0.1,0.1,0.1S213.9,230.3,213.9,230.3z"/>
		<path class="st0" d="M204.3,237.7c-0.1,0-0.3-0.1-0.3-0.3c0-0.1,0.1-0.3,0.3-0.3s0.3,0.1,0.3,0.3
			C204.6,237.6,204.4,237.7,204.3,237.7z"/>
		<path class="st0" d="M194.1,244.1c-0.2,0-0.4-0.2-0.4-0.4c0-0.2,0.2-0.4,0.4-0.4c0.2,0,0.4,0.2,0.4,0.4
			C194.5,244,194.3,244.1,194.1,244.1z"/>
		<path class="st0" d="M183.4,249.6c-0.3,0-0.5-0.2-0.5-0.5c0-0.3,0.2-0.5,0.5-0.5c0.3,0,0.5,0.2,0.5,0.5
			C183.9,249.4,183.7,249.6,183.4,249.6z"/>
		<path class="st0" d="M172.2,254c-0.3,0-0.6-0.3-0.6-0.6c0-0.3,0.3-0.6,0.6-0.6c0.3,0,0.6,0.3,0.6,0.6
			C172.8,253.7,172.5,254,172.2,254z"/>
		<path class="st0" d="M160.7,257.4c-0.4,0-0.7-0.3-0.7-0.7c0-0.4,0.3-0.7,0.7-0.7c0.4,0,0.7,0.3,0.7,0.7
			C161.4,257.1,161.1,257.4,160.7,257.4z"/>
		<path class="st0" d="M148.9,259.6c-0.4,0-0.8-0.3-0.8-0.8c0-0.4,0.3-0.8,0.8-0.8c0.4,0,0.8,0.3,0.8,0.8
			C149.7,259.3,149.4,259.6,148.9,259.6z"/>
		<path class="st0" d="M137,260.8c-0.5,0-0.8-0.4-0.8-0.8c0-0.5,0.4-0.8,0.8-0.8c0.5,0,0.8,0.4,0.8,0.8
			C137.8,260.4,137.5,260.8,137,260.8z"/>
		<path class="st0" d="M125,260.9c-0.5,0-0.9-0.4-0.9-0.9s0.4-0.9,0.9-0.9c0.5,0,0.9,0.4,0.9,0.9S125.5,260.9,125,260.9z"/>
		<path class="st0" d="M113.1,259.8c-0.5,0-1-0.4-1-1c0-0.5,0.4-1,1-1c0.5,0,1,0.4,1,1C114.1,259.4,113.6,259.8,113.1,259.8z"/>
		<path class="st0" d="M101.3,257.7c-0.6,0-1-0.5-1-1c0-0.6,0.5-1,1-1c0.6,0,1,0.5,1,1C102.4,257.2,101.9,257.7,101.3,257.7z"/>
		<path class="st0" d="M89.8,254.5c-0.6,0-1.1-0.5-1.1-1.1c0-0.6,0.5-1.1,1.1-1.1c0.6,0,1.1,0.5,1.1,1.1
			C90.9,254,90.4,254.5,89.8,254.5z"/>
		<path class="st0" d="M78.6,250.2c-0.6,0-1.2-0.5-1.2-1.2c0-0.6,0.5-1.2,1.2-1.2c0.6,0,1.2,0.5,1.2,1.2
			C79.8,249.7,79.3,250.2,78.6,250.2z"/>
		<path class="st0" d="M67.9,245c-0.7,0-1.2-0.6-1.2-1.2c0-0.7,0.6-1.2,1.2-1.2c0.7,0,1.2,0.6,1.2,1.2C69.1,244.4,68.6,245,67.9,245
			z"/>
		<path class="st0" d="M57.7,238.7c-0.7,0-1.3-0.6-1.3-1.3c0-0.7,0.6-1.3,1.3-1.3c0.7,0,1.3,0.6,1.3,1.3
			C59,238.1,58.4,238.7,57.7,238.7z"/>
		<path class="st0" d="M48.2,231.5c-0.7,0-1.3-0.6-1.3-1.3c0-0.7,0.6-1.3,1.3-1.3c0.7,0,1.3,0.6,1.3,1.3
			C49.5,230.9,48.9,231.5,48.2,231.5z"/>
		<path class="st0" d="M39.3,223.4c-0.7,0-1.3-0.6-1.3-1.3c0-0.7,0.6-1.3,1.3-1.3s1.3,0.6,1.3,1.3C40.7,222.9,40.1,223.4,39.3,223.4
			z"/>
		<path class="st0" d="M31.3,214.6c-0.7,0-1.3-0.6-1.3-1.3c0-0.7,0.6-1.3,1.3-1.3s1.3,0.6,1.3,1.3C32.6,214,32,214.6,31.3,214.6z"/>
		<path class="st0" d="M24,205.1c-0.8,0-1.4-0.6-1.4-1.4s0.6-1.4,1.4-1.4c0.8,0,1.4,0.6,1.4,1.4S24.8,205.1,24,205.1z"/>
		<path class="st0" d="M17.7,194.9c-0.8,0-1.4-0.6-1.4-1.4c0-0.8,0.6-1.4,1.4-1.4c0.8,0,1.4,0.6,1.4,1.4
			C19.1,194.3,18.5,194.9,17.7,194.9z"/>
		<path class="st0" d="M12.4,184.2c-0.8,0-1.4-0.6-1.4-1.4c0-0.8,0.6-1.4,1.4-1.4c0.8,0,1.4,0.6,1.4,1.4
			C13.8,183.6,13.1,184.2,12.4,184.2z"/>
		<path class="st0" d="M8,173.1c-0.8,0-1.4-0.6-1.4-1.4c0-0.8,0.6-1.4,1.4-1.4c0.8,0,1.4,0.6,1.4,1.4C9.5,172.4,8.8,173.1,8,173.1z"
			/>
		<path class="st0" d="M4.8,161.6c-0.8,0-1.4-0.6-1.4-1.4s0.6-1.4,1.4-1.4c0.8,0,1.4,0.6,1.4,1.4S5.6,161.6,4.8,161.6z"/>
		<path class="st0" d="M2.6,149.8c-0.8,0-1.5-0.7-1.5-1.5c0-0.8,0.7-1.5,1.5-1.5c0.8,0,1.5,0.7,1.5,1.5
			C4.1,149.2,3.4,149.8,2.6,149.8z"/>
		<path class="st0" d="M1.5,137.9c-0.8,0-1.5-0.7-1.5-1.5c0-0.8,0.7-1.5,1.5-1.5c0.8,0,1.5,0.7,1.5,1.5C3,137.3,2.3,137.9,1.5,137.9
			z"/>
		<path class="st0" d="M1.5,125.9c-0.8,0-1.5-0.7-1.5-1.5s0.7-1.5,1.5-1.5c0.8,0,1.5,0.7,1.5,1.5S2.3,125.9,1.5,125.9z"/>
		<path class="st0" d="M2.6,114c-0.8,0-1.5-0.7-1.5-1.5c0-0.8,0.7-1.5,1.5-1.5c0.8,0,1.5,0.7,1.5,1.5C4.1,113.3,3.4,114,2.6,114z"/>
		<path class="st0" d="M4.8,102.2c-0.8,0-1.4-0.6-1.4-1.4s0.6-1.4,1.4-1.4s1.4,0.6,1.4,1.4S5.6,102.2,4.8,102.2z"/>
		<path class="st0" d="M8,90.7c-0.8,0-1.4-0.6-1.4-1.4c0-0.8,0.6-1.4,1.4-1.4c0.8,0,1.4,0.6,1.4,1.4C9.5,90,8.8,90.7,8,90.7z"/>
		<path class="st0" d="M12.4,79.5c-0.8,0-1.4-0.6-1.4-1.4s0.6-1.4,1.4-1.4c0.8,0,1.4,0.6,1.4,1.4S13.1,79.5,12.4,79.5z"/>
		<path class="st0" d="M17.7,68.7c-0.8,0-1.4-0.6-1.4-1.4c0-0.8,0.6-1.4,1.4-1.4c0.8,0,1.4,0.6,1.4,1.4
			C19.1,68.1,18.5,68.7,17.7,68.7z"/>
		<path class="st0" d="M24,58.5c-0.8,0-1.4-0.6-1.4-1.4c0-0.8,0.6-1.4,1.4-1.4c0.8,0,1.4,0.6,1.4,1.4C25.4,57.9,24.8,58.5,24,58.5z"
			/>
		<path class="st0" d="M31.2,48.9c-0.7,0-1.3-0.6-1.3-1.3c0-0.7,0.6-1.3,1.3-1.3c0.7,0,1.3,0.6,1.3,1.3C32.6,48.3,32,48.9,31.2,48.9
			z"/>
		<path class="st0" d="M39.3,40.1c-0.7,0-1.3-0.6-1.3-1.3c0-0.7,0.6-1.3,1.3-1.3c0.7,0,1.3,0.6,1.3,1.3C40.6,39.5,40,40.1,39.3,40.1
			z"/>
		<path class="st0" d="M48.2,32c-0.7,0-1.3-0.6-1.3-1.3c0-0.7,0.6-1.3,1.3-1.3c0.7,0,1.3,0.6,1.3,1.3C49.5,31.4,48.9,32,48.2,32z"/>
		<path class="st0" d="M57.7,24.7c-0.7,0-1.3-0.6-1.3-1.3c0-0.7,0.6-1.3,1.3-1.3c0.7,0,1.3,0.6,1.3,1.3C59,24.2,58.4,24.7,57.7,24.7
			z"/>
		<path class="st0" d="M67.9,18.4c-0.7,0-1.2-0.6-1.2-1.2c0-0.7,0.6-1.2,1.2-1.2c0.7,0,1.2,0.6,1.2,1.2
			C69.1,17.8,68.6,18.4,67.9,18.4z"/>
		<path class="st0" d="M78.6,13c-0.6,0-1.2-0.5-1.2-1.2c0-0.6,0.5-1.2,1.2-1.2c0.6,0,1.2,0.5,1.2,1.2C79.8,12.4,79.3,13,78.6,13z"/>
		<path class="st0" d="M89.8,8.6c-0.6,0-1.1-0.5-1.1-1.1c0-0.6,0.5-1.1,1.1-1.1c0.6,0,1.1,0.5,1.1,1.1C90.9,8.1,90.4,8.6,89.8,8.6z"
			/>
		<path class="st0" d="M101.3,5.2c-0.6,0-1-0.5-1-1c0-0.6,0.5-1,1-1s1,0.5,1,1C102.4,4.8,101.9,5.2,101.3,5.2z"/>
		<path class="st0" d="M113.1,3c-0.5,0-1-0.4-1-1c0-0.5,0.4-1,1-1c0.5,0,1,0.4,1,1C114.1,2.5,113.6,3,113.1,3z"/>
		<path class="st0" d="M125,1.8c-0.5,0-0.9-0.4-0.9-0.9c0-0.5,0.4-0.9,0.9-0.9c0.5,0,0.9,0.4,0.9,0.9C125.9,1.4,125.5,1.8,125,1.8z"
			/>
		<path class="st0" d="M137,1.8c-0.5,0-0.8-0.4-0.8-0.8s0.4-0.8,0.8-0.8c0.5,0,0.8,0.4,0.8,0.8S137.5,1.8,137,1.8z"/>
		<path class="st0" d="M148.9,2.8c-0.4,0-0.8-0.3-0.8-0.8c0-0.4,0.3-0.8,0.8-0.8s0.8,0.3,0.8,0.8C149.7,2.4,149.3,2.8,148.9,2.8z"/>
		<path class="st0" d="M160.7,4.9c-0.4,0-0.7-0.3-0.7-0.7c0-0.4,0.3-0.7,0.7-0.7c0.4,0,0.7,0.3,0.7,0.7
			C161.4,4.6,161.1,4.9,160.7,4.9z"/>
		<path class="st0" d="M172.2,8.1c-0.3,0-0.6-0.3-0.6-0.6s0.3-0.6,0.6-0.6s0.6,0.3,0.6,0.6S172.5,8.1,172.2,8.1z"/>
		<path class="st0" d="M183.4,12.3c-0.3,0-0.5-0.2-0.5-0.5s0.2-0.5,0.5-0.5s0.5,0.2,0.5,0.5S183.7,12.3,183.4,12.3z"/>
		<path class="st0" d="M194.1,17.5c-0.2,0-0.4-0.2-0.4-0.4c0-0.2,0.2-0.4,0.4-0.4c0.2,0,0.4,0.2,0.4,0.4
			C194.5,17.3,194.3,17.5,194.1,17.5z"/>
		<path class="st0" d="M204.3,23.7c-0.1,0-0.3-0.1-0.3-0.3s0.1-0.3,0.3-0.3c0.2,0,0.3,0.1,0.3,0.3S204.4,23.7,204.3,23.7z"/>
		<path class="st0" d="M213.8,30.8c-0.1,0-0.1-0.1-0.1-0.1c0-0.1,0.1-0.1,0.1-0.1c0.1,0,0.1,0.1,0.1,0.1
			C214,30.7,213.9,30.8,213.8,30.8z"/>
	</g>
</g>
</svg>
